<svg xmlns="http://www.w3.org/2000/svg" viewBox="0 0 2030 1208" role="img" aria-labelledby="title desc">
<title id="title">Cloud events and evidence</title><desc id="desc">Events connect normalized evidence, market observations, and discovered threads.</desc>
<defs><marker id="arrow" viewBox="0 0 10 10" refX="9" refY="5" markerWidth="5" markerHeight="5" orient="auto"><path d="M 0 0 L 10 5 L 0 10 z" class="arrow"/></marker></defs>
<style>
  :root { color-scheme: light; }
  text { font-family: -apple-system,BlinkMacSystemFont,"Segoe UI",sans-serif; }
  .canvas { fill:#ffffff; } .title { fill:#0f172a;font-size:25px;font-weight:700; } .subtitle { fill:#64748b;font-size:13px; }
  .table { fill:#fff;stroke:#cbd5e1;stroke-width:1.4; } .table-head { fill:#e8f0fe;stroke:#7aa2e3;stroke-width:1.4; }
  .table-name { fill:#172554;font-size:14px;font-weight:700; } .field { fill:#1e293b;font-size:11px; } .type { fill:#64748b;font-size:10px; } .key { fill:#2563eb;font-size:9px;font-weight:700; }
  .relation { fill:none;stroke:#64748b;stroke-width:1.4;opacity:.95; } .arrow { fill:#475569; }
  .relation-halo { fill:none;stroke:#ffffff;stroke-width:5; }
  .cardinality { fill:#475569;font-size:10px;font-weight:700;paint-order:stroke;stroke:#ffffff;stroke-width:3px;stroke-linejoin:round; }
  .domain-zone rect { fill:#eff6ff;fill-opacity:.35;stroke:#bfdbfe;stroke-width:1.2;stroke-dasharray:6 5; }
  .domain-zone text { fill:#475569;font-size:13px;font-weight:700;letter-spacing:.02em; }
  .node.entity .table-head,.legend-item.entity .legend-swatch { fill:#bfdbfe;stroke:#2563eb; }
  .node.attribute .table-head,.legend-item.attribute .legend-swatch { fill:#fef3c7;stroke:#d97706; }
  .node.binding .table-head,.legend-item.binding .legend-swatch { fill:#ccfbf1;stroke:#0f766e; }
  .node.process .table-head,.legend-item.process .legend-swatch { fill:#ffedd5;stroke:#ea580c; }
  .node.explanation .table-head,.legend-item.explanation .legend-swatch { fill:#ede9fe;stroke:#7c3aed; }
  .node.entity .table-name,.node.attribute .table-name,.node.binding .table-name,
  .node.process .table-name,.node.explanation .table-name { fill:#172554; }
  .node.entity#table-entity .table,.node.entity#table-entity .table-head { stroke-width:2.6; }
  .legend-item text { fill:#475569;font-size:10px; } .legend-swatch { stroke-width:1.2; }
</style><rect class="canvas" width="100%" height="100%" rx="12"/><text class="title" x="30" y="38">Cloud events and evidence</text><text class="subtitle" x="30" y="61">Events connect normalized evidence, market observations, and discovered threads.</text>
<g aria-label="domains"></g><g aria-label="relationships"><path class="relation-halo" d="M 895 785 L 895 713"/><path class="relation" d="M 895 785 L 895 713" marker-end="url(#arrow)"/><path class="relation-halo" d="M 1320 542.5 L 1320 515 L 1320 458"/><path class="relation" d="M 1320 542.5 L 1320 515 L 1320 458" marker-end="url(#arrow)"/><path class="relation-halo" d="M 515 589.5 L 515 470.5"/><path class="relation" d="M 515 589.5 L 515 470.5" marker-end="url(#arrow)"/><path class="relation-halo" d="M 945 488 L 945 585 L 945 615"/><path class="relation" d="M 945 488 L 945 585 L 945 615" marker-end="url(#arrow)"/><path class="relation-halo" d="M 310 665 L 320 665 L 380 665"/><path class="relation" d="M 310 665 L 320 665 L 380 665" marker-end="url(#arrow)"/><path class="relation-halo" d="M 1090 422 L 1140 422 L 1180 422"/><path class="relation" d="M 1090 422 L 1140 422 L 1180 422" marker-end="url(#arrow)"/><path class="relation-halo" d="M 600 146.5 L 490 146.5"/><path class="relation" d="M 600 146.5 L 490 146.5" marker-end="url(#arrow)"/><path class="relation-halo" d="M 650 685 L 670 685 L 760 685"/><path class="relation" d="M 650 685 L 670 685 L 760 685" marker-end="url(#arrow)"/><path class="relation-halo" d="M 515 372.5 L 515 295 L 355 295 L 355 195.5"/><path class="relation" d="M 515 372.5 L 515 295 L 355 295 L 355 195.5" marker-end="url(#arrow)"/><path class="relation-halo" d="M 1200 585 L 1090 585 L 1090 645 L 1030 645"/><path class="relation" d="M 1200 585 L 1090 585 L 1090 645 L 1030 645" marker-end="url(#arrow)"/><path class="relation-halo" d="M 480 762.5 L 480 831 L 300 831"/><path class="relation" d="M 480 762.5 L 480 831 L 300 831" marker-end="url(#arrow)"/><path class="relation-halo" d="M 170 605 L 170 425 L 380 425"/><path class="relation" d="M 170 605 L 170 425 L 380 425" marker-end="url(#arrow)"/><path class="relation-halo" d="M 1275 885 L 1275 677 L 1030 677"/><path class="relation" d="M 1275 885 L 1275 677 L 1030 677" marker-end="url(#arrow)"/><path class="relation-halo" d="M 735 208 L 735 515 L 830 515 L 830 615"/><path class="relation" d="M 735 208 L 735 515 L 830 515 L 830 615" marker-end="url(#arrow)"/><path class="relation-halo" d="M 1410 946.5 L 1530 946.5 L 1530 604 L 1560 604"/><path class="relation" d="M 1410 946.5 L 1530 946.5 L 1530 604 L 1560 604" marker-end="url(#arrow)"/><path class="relation-halo" d="M 540 762.5 L 540 955 L 1140 955"/><path class="relation" d="M 540 762.5 L 540 955 L 1140 955" marker-end="url(#arrow)"/><text class="cardinality" x="902" y="771" text-anchor="start">0..N</text><text class="cardinality" x="902" y="725" text-anchor="start">1</text><text class="cardinality" x="1327" y="528.5" text-anchor="start">0..N</text><text class="cardinality" x="1327" y="470" text-anchor="start">0..1</text><text class="cardinality" x="522" y="575.5" text-anchor="start">0..N</text><text class="cardinality" x="522" y="482.5" text-anchor="start">1</text><text class="cardinality" x="952" y="502" text-anchor="start">0..1</text><text class="cardinality" x="952" y="603" text-anchor="start">1</text><text class="cardinality" x="328" y="659" text-anchor="middle">0..N</text><text class="cardinality" x="364" y="659" text-anchor="middle">1</text><text class="cardinality" x="1108" y="416" text-anchor="middle">0..N</text><text class="cardinality" x="1164" y="416" text-anchor="middle">0..1</text><text class="cardinality" x="582" y="140.5" text-anchor="middle">0..N</text><text class="cardinality" x="506" y="140.5" text-anchor="middle">0..1</text><text class="cardinality" x="668" y="679" text-anchor="middle">0..N</text><text class="cardinality" x="744" y="679" text-anchor="middle">1</text><text class="cardinality" x="522" y="358.5" text-anchor="start">0..1</text><text class="cardinality" x="362" y="207.5" text-anchor="start">1</text><text class="cardinality" x="1182" y="579" text-anchor="middle">0..1</text><text class="cardinality" x="1046" y="639" text-anchor="middle">1</text><text class="cardinality" x="487" y="776.5" text-anchor="start">0..N</text><text class="cardinality" x="316" y="825" text-anchor="middle">1</text><text class="cardinality" x="177" y="591" text-anchor="start">0..N</text><text class="cardinality" x="364" y="419" text-anchor="middle">1</text><text class="cardinality" x="1282" y="871" text-anchor="start">0..N</text><text class="cardinality" x="1046" y="671" text-anchor="middle">1</text><text class="cardinality" x="742" y="222" text-anchor="start">0..N</text><text class="cardinality" x="837" y="603" text-anchor="start">1</text><text class="cardinality" x="1428" y="940.5" text-anchor="middle">0..N</text><text class="cardinality" x="1544" y="598" text-anchor="middle">1</text><text class="cardinality" x="547" y="776.5" text-anchor="start">0..N</text><text class="cardinality" x="1124" y="949" text-anchor="middle">0..1</text></g><g aria-label="tables"><g id="table-entity" class="node "><rect class="table" x="220" y="97.5" width="270" height="98"/><rect class="table-head" x="220" y="97.5" width="270" height="38"/><text class="table-name" x="233" y="122.5" font-size="14px">entity</text><text class="key" x="233" y="155.5">PK</text><text class="field" x="263" y="155.5">entity_id</text><text class="type" x="478" y="155.5" text-anchor="end">text</text><text class="key" x="233" y="180.5"></text><text class="field" x="263" y="180.5">entity_type</text><text class="type" x="478" y="180.5" text-anchor="end">varchar(20)</text></g><g id="table-instrument" class="node "><rect class="table" x="380" y="372.5" width="270" height="98"/><rect class="table-head" x="380" y="372.5" width="270" height="38"/><text class="table-name" x="393" y="397.5" font-size="14px">instrument</text><text class="key" x="393" y="430.5">PK</text><text class="field" x="423" y="430.5">instrument_id</text><text class="type" x="638" y="430.5" text-anchor="end">text</text><text class="key" x="393" y="455.5">FK</text><text class="field" x="423" y="455.5">entity_type</text><text class="type" x="638" y="455.5" text-anchor="end">varchar(20)</text></g><g id="table-market_series" class="node "><rect class="table" x="30" y="795" width="270" height="73"/><rect class="table-head" x="30" y="795" width="270" height="38"/><text class="table-name" x="43" y="820" font-size="14px">market_series</text><text class="key" x="43" y="853">PK</text><text class="field" x="73" y="853">market_series_id</text><text class="type" x="288" y="853" text-anchor="end">text</text></g><g id="table-document_assertion" class="node "><rect class="table" x="1560" y="567.5" width="270" height="73"/><rect class="table-head" x="1560" y="567.5" width="270" height="38"/><text class="table-name" x="1573" y="592.5" font-size="14px">document_assertion</text><text class="key" x="1573" y="625.5">PK</text><text class="field" x="1603" y="625.5">assertion_id</text><text class="type" x="1818" y="625.5" text-anchor="end">text</text></g><g id="table-event_argument" class="node "><rect class="table" x="600" y="85" width="270" height="123"/><rect class="table-head" x="600" y="85" width="270" height="38"/><text class="table-name" x="613" y="110" font-size="14px">event_argument</text><text class="key" x="613" y="143">FK</text><text class="field" x="643" y="143">source_event_id</text><text class="type" x="858" y="143" text-anchor="end">text</text><text class="key" x="613" y="168">FK</text><text class="field" x="643" y="168">entity_id</text><text class="type" x="858" y="168" text-anchor="end">text</text><text class="key" x="613" y="193">PK</text><text class="field" x="643" y="193">event_argument_id</text><text class="type" x="858" y="193" text-anchor="end">bigint</text></g><g id="table-source_event" class="node "><rect class="table" x="760" y="615" width="270" height="98"/><rect class="table-head" x="760" y="615" width="270" height="38"/><text class="table-name" x="773" y="640" font-size="14px">source_event</text><text class="key" x="773" y="673">PK</text><text class="field" x="803" y="673">source_event_id</text><text class="type" x="1018" y="673" text-anchor="end">text</text><text class="key" x="773" y="698"></text><text class="field" x="803" y="698">source_class</text><text class="type" x="1018" y="698" text-anchor="end">varchar(20)</text></g><g id="table-event_evidence" class="node "><rect class="table" x="1140" y="885" width="270" height="123"/><rect class="table-head" x="1140" y="885" width="270" height="38"/><text class="table-name" x="1153" y="910" font-size="14px">event_evidence</text><text class="key" x="1153" y="943">PK</text><text class="field" x="1183" y="943">evidence_id</text><text class="type" x="1398" y="943" text-anchor="end">text</text><text class="key" x="1153" y="968">FK</text><text class="field" x="1183" y="968">source_event_id</text><text class="type" x="1398" y="968" text-anchor="end">text</text><text class="key" x="1153" y="993">FK</text><text class="field" x="1183" y="993">assertion_id</text><text class="type" x="1398" y="993" text-anchor="end">text</text></g><g id="table-event_price_observation" class="node "><rect class="table" x="380" y="589.5" width="270" height="173"/><rect class="table-head" x="380" y="589.5" width="270" height="38"/><text class="table-name" x="393" y="614.5" font-size="14px">event_price_observation</text><text class="key" x="393" y="647.5">PK</text><text class="field" x="423" y="647.5">event_price_observation_id</text><text class="type" x="638" y="647.5" text-anchor="end">text</text><text class="key" x="393" y="672.5">FK</text><text class="field" x="423" y="672.5">source_event_id</text><text class="type" x="638" y="672.5" text-anchor="end">text</text><text class="key" x="393" y="697.5">FK</text><text class="field" x="423" y="697.5">instrument_id</text><text class="type" x="638" y="697.5" text-anchor="end">text</text><text class="key" x="393" y="722.5">FK</text><text class="field" x="423" y="722.5">anchor_evidence_id</text><text class="type" x="638" y="722.5" text-anchor="end">text</text><text class="key" x="393" y="747.5">FK</text><text class="field" x="423" y="747.5">benchmark_series_id</text><text class="type" x="638" y="747.5" text-anchor="end">text</text></g><g id="table-event_measure" class="node "><rect class="table" x="760" y="785" width="270" height="73"/><rect class="table-head" x="760" y="785" width="270" height="38"/><text class="table-name" x="773" y="810" font-size="14px">event_measure</text><text class="key" x="773" y="843">FK</text><text class="field" x="803" y="843">source_event_id</text><text class="type" x="1018" y="843" text-anchor="end">text</text></g><g id="table-event_thread" class="node "><rect class="table" x="1180" y="385" width="270" height="73"/><rect class="table-head" x="1180" y="385" width="270" height="38"/><text class="table-name" x="1193" y="410" font-size="14px">event_thread</text><text class="key" x="1193" y="443">PK</text><text class="field" x="1223" y="443">thread_id</text><text class="type" x="1438" y="443" text-anchor="end">text</text></g><g id="table-event_price_observation_peer" class="node "><rect class="table" x="40" y="605" width="270" height="98"/><rect class="table-head" x="40" y="605" width="270" height="38"/><text class="table-name" x="53" y="630" font-size="14px">event_price_observation_peer</text><text class="key" x="53" y="663">FK</text><text class="field" x="83" y="663">event_price_observation_id</text><text class="type" x="298" y="663" text-anchor="end">text</text><text class="key" x="53" y="688">FK</text><text class="field" x="83" y="688">peer_instrument_id</text><text class="type" x="298" y="688" text-anchor="end">text</text></g><g id="table-event_thread_link" class="node "><rect class="table" x="820" y="365" width="270" height="123"/><rect class="table-head" x="820" y="365" width="270" height="38"/><text class="table-name" x="833" y="390" font-size="14px">event_thread_link</text><text class="key" x="833" y="423">PK</text><text class="field" x="863" y="423">source_event_id</text><text class="type" x="1078" y="423" text-anchor="end">text</text><text class="key" x="833" y="448">FK</text><text class="field" x="863" y="448">thread_id</text><text class="type" x="1078" y="448" text-anchor="end">text</text><text class="key" x="833" y="473">FK</text><text class="field" x="863" y="473">source_class</text><text class="type" x="1078" y="473" text-anchor="end">varchar(20)</text></g><g id="table-thread_discovery_snapshot" class="node "><rect class="table" x="1200" y="542.5" width="270" height="98"/><rect class="table-head" x="1200" y="542.5" width="270" height="38"/><text class="table-name" x="1213" y="567.5" font-size="14px">thread_discovery_snapshot</text><text class="key" x="1213" y="600.5">PK</text><text class="field" x="1243" y="600.5">source_event_id</text><text class="type" x="1458" y="600.5" text-anchor="end">text</text><text class="key" x="1213" y="625.5">FK</text><text class="field" x="1243" y="625.5">thread_id</text><text class="type" x="1458" y="625.5" text-anchor="end">text</text></g></g></svg>
