<svg xmlns="http://www.w3.org/2000/svg" viewBox="0 0 1520 1128" role="img" aria-labelledby="title desc">
<title id="title">Cloud reference model</title><desc id="desc">Identifiers, classifications, actors, concepts, and instrument profiles.</desc>
<defs><marker id="arrow" viewBox="0 0 10 10" refX="9" refY="5" markerWidth="5" markerHeight="5" orient="auto"><path d="M 0 0 L 10 5 L 0 10 z" class="arrow"/></marker></defs>
<style>
  :root { color-scheme: light; }
  text { font-family: -apple-system,BlinkMacSystemFont,"Segoe UI",sans-serif; }
  .canvas { fill:#ffffff; } .title { fill:#0f172a;font-size:25px;font-weight:700; } .subtitle { fill:#64748b;font-size:13px; }
  .table { fill:#fff;stroke:#cbd5e1;stroke-width:1.4; } .table-head { fill:#e8f0fe;stroke:#7aa2e3;stroke-width:1.4; }
  .table-name { fill:#172554;font-size:14px;font-weight:700; } .field { fill:#1e293b;font-size:11px; } .type { fill:#64748b;font-size:10px; } .key { fill:#2563eb;font-size:9px;font-weight:700; }
  .relation { fill:none;stroke:#64748b;stroke-width:1.4;opacity:.95; } .arrow { fill:#475569; }
  .relation-halo { fill:none;stroke:#ffffff;stroke-width:5; }
  .cardinality { fill:#475569;font-size:10px;font-weight:700;paint-order:stroke;stroke:#ffffff;stroke-width:3px;stroke-linejoin:round; }
  .domain-zone rect { fill:#eff6ff;fill-opacity:.35;stroke:#bfdbfe;stroke-width:1.2;stroke-dasharray:6 5; }
  .domain-zone text { fill:#475569;font-size:13px;font-weight:700;letter-spacing:.02em; }
  .node.entity .table-head,.legend-item.entity .legend-swatch { fill:#bfdbfe;stroke:#2563eb; }
  .node.attribute .table-head,.legend-item.attribute .legend-swatch { fill:#fef3c7;stroke:#d97706; }
  .node.binding .table-head,.legend-item.binding .legend-swatch { fill:#ccfbf1;stroke:#0f766e; }
  .node.process .table-head,.legend-item.process .legend-swatch { fill:#ffedd5;stroke:#ea580c; }
  .node.explanation .table-head,.legend-item.explanation .legend-swatch { fill:#ede9fe;stroke:#7c3aed; }
  .node.entity .table-name,.node.attribute .table-name,.node.binding .table-name,
  .node.process .table-name,.node.explanation .table-name { fill:#172554; }
  .node.entity#table-entity .table,.node.entity#table-entity .table-head { stroke-width:2.6; }
  .legend-item text { fill:#475569;font-size:10px; } .legend-swatch { stroke-width:1.2; }
</style><rect class="canvas" width="100%" height="100%" rx="12"/><text class="title" x="30" y="38">Cloud reference model</text><text class="subtitle" x="30" y="61">Identifiers, classifications, actors, concepts, and instrument profiles.</text>
<g aria-label="domains"></g><g aria-label="relationships"><path class="relation-halo" d="M 620 577 L 664 577 L 664 605 L 620 605"/><path class="relation" d="M 620 577 L 664 577 L 664 605 L 620 605" marker-end="url(#arrow)"/><path class="relation-halo" d="M 165 195.5 L 165 290"/><path class="relation" d="M 165 195.5 L 165 290" marker-end="url(#arrow)"/><path class="relation-halo" d="M 520 535 L 520 465 L 520 388"/><path class="relation" d="M 520 535 L 520 465 L 520 388" marker-end="url(#arrow)"/><path class="relation-halo" d="M 845 780 L 845 658"/><path class="relation" d="M 845 780 L 845 658" marker-end="url(#arrow)"/><path class="relation-halo" d="M 1040 581.5 L 1000 581.5"/><path class="relation" d="M 1040 581.5 L 1000 581.5" marker-end="url(#arrow)"/><path class="relation-halo" d="M 300 345 L 360 345 L 370 345"/><path class="relation" d="M 300 345 L 360 345 L 370 345" marker-end="url(#arrow)"/><path class="relation-halo" d="M 980 854 L 1050 854"/><path class="relation" d="M 980 854 L 1050 854" marker-end="url(#arrow)"/><path class="relation-halo" d="M 910 208 L 910 375 L 910 535"/><path class="relation" d="M 910 208 L 910 375 L 910 535" marker-end="url(#arrow)"/><path class="relation-halo" d="M 710 845 L 560 845 L 560 658"/><path class="relation" d="M 710 845 L 560 845 L 560 658" marker-end="url(#arrow)"/><path class="relation-halo" d="M 837 535 L 837 335 L 640 335"/><path class="relation" d="M 837 535 L 837 335 L 640 335" marker-end="url(#arrow)"/><path class="relation-halo" d="M 780 146.5 L 300 146.5"/><path class="relation" d="M 780 146.5 L 300 146.5" marker-end="url(#arrow)"/><text class="cardinality" x="638" y="571" text-anchor="middle">0..N</text><text class="cardinality" x="636" y="599" text-anchor="middle">0..1</text><text class="cardinality" x="172" y="209.5" text-anchor="start">0..1</text><text class="cardinality" x="172" y="278" text-anchor="start">1</text><text class="cardinality" x="527" y="521" text-anchor="start">0..1</text><text class="cardinality" x="527" y="400" text-anchor="start">1</text><text class="cardinality" x="852" y="766" text-anchor="start">0..1</text><text class="cardinality" x="852" y="670" text-anchor="start">1</text><text class="cardinality" x="1022" y="575.5" text-anchor="middle">0..N</text><text class="cardinality" x="1016" y="575.5" text-anchor="middle">1</text><text class="cardinality" x="318" y="339" text-anchor="middle">0..1</text><text class="cardinality" x="354" y="339" text-anchor="middle">1</text><text class="cardinality" x="998" y="848" text-anchor="middle">0..N</text><text class="cardinality" x="1034" y="848" text-anchor="middle">0..1</text><text class="cardinality" x="917" y="222" text-anchor="start">0..1</text><text class="cardinality" x="917" y="523" text-anchor="start">1</text><text class="cardinality" x="692" y="839" text-anchor="middle">0..N</text><text class="cardinality" x="567" y="670" text-anchor="start">0..1</text><text class="cardinality" x="844" y="521" text-anchor="start">0..1</text><text class="cardinality" x="656" y="329" text-anchor="middle">1</text><text class="cardinality" x="762" y="140.5" text-anchor="middle">0..N</text><text class="cardinality" x="316" y="140.5" text-anchor="middle">1</text></g><g aria-label="tables"><g id="table-entity" class="node "><rect class="table" x="370" y="290" width="270" height="98"/><rect class="table-head" x="370" y="290" width="270" height="38"/><text class="table-name" x="383" y="315" font-size="14px">entity</text><text class="key" x="383" y="348">PK</text><text class="field" x="413" y="348">entity_id</text><text class="type" x="628" y="348" text-anchor="end">text</text><text class="key" x="383" y="373"></text><text class="field" x="413" y="373">entity_type</text><text class="type" x="628" y="373" text-anchor="end">varchar(20)</text></g><g id="table-actor" class="node "><rect class="table" x="30" y="290" width="270" height="123"/><rect class="table-head" x="30" y="290" width="270" height="38"/><text class="table-name" x="43" y="315" font-size="14px">actor</text><text class="key" x="43" y="348">PK</text><text class="field" x="73" y="348">actor_id</text><text class="type" x="288" y="348" text-anchor="end">text</text><text class="key" x="43" y="373">FK</text><text class="field" x="73" y="373">entity_type</text><text class="type" x="288" y="373" text-anchor="end">varchar(20)</text><text class="key" x="43" y="398"></text><text class="field" x="73" y="398">actor_type</text><text class="type" x="288" y="398" text-anchor="end">varchar(30)</text></g><g id="table-concept" class="node "><rect class="table" x="350" y="535" width="270" height="123"/><rect class="table-head" x="350" y="535" width="270" height="38"/><text class="table-name" x="363" y="560" font-size="14px">concept</text><text class="key" x="363" y="593">PK</text><text class="field" x="393" y="593">concept_id</text><text class="type" x="608" y="593" text-anchor="end">text</text><text class="key" x="363" y="618">FK</text><text class="field" x="393" y="618">entity_type</text><text class="type" x="608" y="618" text-anchor="end">varchar(20)</text><text class="key" x="363" y="643">FK</text><text class="field" x="393" y="643">parent_concept_id</text><text class="type" x="608" y="643" text-anchor="end">text</text></g><g id="table-instrument" class="node "><rect class="table" x="730" y="535" width="270" height="123"/><rect class="table-head" x="730" y="535" width="270" height="38"/><text class="table-name" x="743" y="560" font-size="14px">instrument</text><text class="key" x="743" y="593">PK</text><text class="field" x="773" y="593">instrument_id</text><text class="type" x="988" y="593" text-anchor="end">text</text><text class="key" x="743" y="618">FK</text><text class="field" x="773" y="618">entity_type</text><text class="type" x="988" y="618" text-anchor="end">varchar(20)</text><text class="key" x="743" y="643"></text><text class="field" x="773" y="643">instrument_type</text><text class="type" x="988" y="643" text-anchor="end">varchar(20)</text></g><g id="table-instrument_classification" class="node "><rect class="table" x="1040" y="545" width="270" height="73"/><rect class="table-head" x="1040" y="545" width="270" height="38"/><text class="table-name" x="1053" y="570" font-size="14px">instrument_classification</text><text class="key" x="1053" y="603">FK</text><text class="field" x="1083" y="603">instrument_id</text><text class="type" x="1298" y="603" text-anchor="end">text</text></g><g id="table-company_profile" class="node "><rect class="table" x="30" y="97.5" width="270" height="98"/><rect class="table-head" x="30" y="97.5" width="270" height="38"/><text class="table-name" x="43" y="122.5" font-size="14px">company_profile</text><text class="key" x="43" y="155.5">PK</text><text class="field" x="73" y="155.5">actor_id</text><text class="type" x="288" y="155.5" text-anchor="end">text</text><text class="key" x="43" y="180.5">FK</text><text class="field" x="73" y="180.5">actor_type</text><text class="type" x="288" y="180.5" text-anchor="end">varchar(30)</text></g><g id="table-equity_profile" class="node "><rect class="table" x="780" y="85" width="270" height="123"/><rect class="table-head" x="780" y="85" width="270" height="38"/><text class="table-name" x="793" y="110" font-size="14px">equity_profile</text><text class="key" x="793" y="143">PK</text><text class="field" x="823" y="143">instrument_id</text><text class="type" x="1038" y="143" text-anchor="end">text</text><text class="key" x="793" y="168">FK</text><text class="field" x="823" y="168">instrument_type</text><text class="type" x="1038" y="168" text-anchor="end">varchar(20)</text><text class="key" x="793" y="193">FK</text><text class="field" x="823" y="193">issuer_actor_id</text><text class="type" x="1038" y="193" text-anchor="end">text</text></g><g id="table-etf_profile" class="node "><rect class="table" x="710" y="780" width="270" height="148"/><rect class="table-head" x="710" y="780" width="270" height="38"/><text class="table-name" x="723" y="805" font-size="14px">etf_profile</text><text class="key" x="723" y="838">PK</text><text class="field" x="753" y="838">instrument_id</text><text class="type" x="968" y="838" text-anchor="end">text</text><text class="key" x="723" y="863">FK</text><text class="field" x="753" y="863">instrument_type</text><text class="type" x="968" y="863" text-anchor="end">varchar(20)</text><text class="key" x="723" y="888">FK</text><text class="field" x="753" y="888">tracking_market_series_id</text><text class="type" x="968" y="888" text-anchor="end">text</text><text class="key" x="723" y="913">FK</text><text class="field" x="753" y="913">primary_theme_concept_id</text><text class="type" x="968" y="913" text-anchor="end">text</text></g><g id="table-market_series" class="node "><rect class="table" x="1050" y="817.5" width="270" height="73"/><rect class="table-head" x="1050" y="817.5" width="270" height="38"/><text class="table-name" x="1063" y="842.5" font-size="14px">market_series</text><text class="key" x="1063" y="875.5">PK</text><text class="field" x="1093" y="875.5">market_series_id</text><text class="type" x="1308" y="875.5" text-anchor="end">text</text></g></g></svg>
